<?xml version="1.0" encoding="UTF-8" standalone="no"?><!DOCTYPE svg PUBLIC "-//W3C//DTD SVG 1.1//EN" "http://www.w3.org/Graphics/SVG/1.1/DTD/svg11.dtd"><svg width="100%" height="100%" viewBox="0 0 512 512" version="1.1" xmlns="http://www.w3.org/2000/svg" xmlns:xlink="http://www.w3.org/1999/xlink" xml:space="preserve" xmlns:serif="http://www.serif.com/" style="fill-rule:evenodd;clip-rule:evenodd;stroke-linejoin:round;stroke-miterlimit:2;"><rect x="26.504" y="223.259" width="456.928" height="262.853" style="fill:#50b067;"/><path d="M480.387,270.11l-107.361,185.954l-346.522,-200.064l107.361,-185.954l346.522,200.064Z" style="fill:#50b067;"/><path d="M486.357,330.425l-194.932,90.038l-142.141,-307.735l194.933,-90.038l142.14,307.735Z" style="fill:#50b067;"/><path d="M353.438,17.5c9.591,6.227 13.529,16.116 17.937,26.188c0.694,1.555 1.389,3.11 2.086,4.664c1.456,3.248 2.905,6.499 4.351,9.752c3.128,7.021 6.349,13.999 9.568,20.978c1.781,3.862 3.555,7.726 5.331,11.59c0.714,1.554 1.429,3.108 2.143,4.662c0.354,0.77 0.708,1.54 1.073,2.333c0.354,0.77 0.708,1.54 1.073,2.333c2.855,6.208 5.709,12.416 8.563,18.625c0.352,0.766 0.704,1.532 1.067,2.322c5.463,11.889 10.909,23.786 16.345,35.687c5.474,11.983 10.963,23.958 16.463,35.928c0.375,0.818 0.751,1.636 1.137,2.479c1.057,2.3 2.114,4.6 3.171,6.9c0.316,0.688 0.632,1.376 0.957,2.085c1.611,3.505 1.611,3.505 3.297,6.974c0.897,0.009 1.794,0.019 2.719,0.028c3.362,0.045 6.724,0.106 10.086,0.18c1.449,0.028 2.898,0.049 4.347,0.063c9.311,0.096 16.722,0.237 24.09,6.694c0.539,0.651 1.078,1.302 1.633,1.972c0.554,0.649 1.109,1.297 1.68,1.965c3.819,5.543 3.734,10.621 3.712,17.136c0.005,1.02 0.009,2.039 0.014,3.09c0.013,3.421 0.011,6.841 0.01,10.262c0.006,2.451 0.012,4.901 0.02,7.352c0.016,5.969 0.022,11.938 0.023,17.907c0.001,4.853 0.005,9.706 0.012,14.559c0.017,13.765 0.026,27.529 0.025,41.293c-0,0.742 -0,1.484 -0,2.248c-0,0.743 -0.001,1.486 -0.001,2.251c-0,12.035 0.019,24.07 0.047,36.105c0.029,12.362 0.042,24.725 0.041,37.087c-0.001,6.939 0.005,13.877 0.026,20.816c0.02,6.526 0.02,13.052 0.005,19.578c-0.002,2.395 0.003,4.789 0.015,7.184c0.015,3.27 0.006,6.54 -0.01,9.811c0.011,0.946 0.021,1.892 0.032,2.866c-0.074,7.111 -1.766,12.403 -6.491,17.795c-0.651,0.539 -1.302,1.078 -1.972,1.633c-0.649,0.554 -1.297,1.109 -1.965,1.68c-4.723,3.254 -9.037,3.735 -14.656,3.702c-0.757,0.004 -1.513,0.007 -2.292,0.011c-2.543,0.009 -5.086,0.004 -7.629,-0.001c-1.839,0.004 -3.677,0.009 -5.515,0.014c-5.059,0.012 -10.117,0.012 -15.175,0.01c-5.453,-0.001 -10.906,0.01 -16.358,0.02c-10.686,0.017 -21.371,0.022 -32.057,0.023c-8.684,0.001 -17.368,0.005 -26.052,0.012c-24.611,0.017 -49.221,0.026 -73.831,0.025c-0.664,-0 -1.327,-0 -2.011,-0c-1.341,-0 -2.683,-0 -4.024,-0.001c-20.873,-0.001 -41.745,0.014 -62.617,0.042c-23.448,0.03 -46.895,0.048 -70.343,0.046c-12.416,-0.001 -24.832,0.005 -37.248,0.026c-10.57,0.018 -21.141,0.023 -31.711,0.009c-5.395,-0.007 -10.789,-0.007 -16.183,0.011c-4.938,0.015 -9.876,0.013 -14.814,-0.005c-1.786,-0.003 -3.573,0.001 -5.359,0.012c-17.956,0.104 -17.956,0.104 -25.465,-6.476c-0.539,-0.651 -1.078,-1.302 -1.633,-1.973c-0.554,-0.648 -1.109,-1.296 -1.68,-1.964c-3.819,-5.543 -3.734,-10.621 -3.712,-17.136c-0.005,-1.02 -0.009,-2.039 -0.014,-3.09c-0.013,-3.421 -0.011,-6.841 -0.01,-10.262c-0.006,-2.451 -0.012,-4.901 -0.02,-7.352c-0.016,-5.969 -0.022,-11.938 -0.023,-17.907c-0.001,-4.853 -0.005,-9.706 -0.012,-14.559c-0.017,-13.765 -0.026,-27.529 -0.025,-41.293c0,-0.742 0,-1.484 0,-2.248c0,-0.743 0.001,-1.486 0.001,-2.251c0,-12.035 -0.019,-24.07 -0.047,-36.105c-0.029,-12.362 -0.042,-24.725 -0.041,-37.087c0.001,-6.939 -0.005,-13.877 -0.026,-20.816c-0.02,-6.526 -0.02,-13.052 -0.005,-19.578c0.002,-2.395 -0.003,-4.789 -0.015,-7.184c-0.015,-3.27 -0.006,-6.54 0.01,-9.811c-0.011,-0.946 -0.021,-1.892 -0.032,-2.866c0.074,-7.111 1.766,-12.403 6.491,-17.795c8.313,-6.881 8.313,-6.881 14.754,-6.59c3.041,-0.386 4.04,-0.891 6.08,-3.234c1.878,-3.02 3.555,-6.094 5.201,-9.247c0.642,-1.176 1.286,-2.351 1.934,-3.525c1.356,-2.465 2.698,-4.937 4.031,-7.414c2.912,-5.392 5.976,-10.695 9.033,-16.005c1.348,-2.344 2.688,-4.693 4.028,-7.043c4.134,-7.247 8.3,-14.476 12.474,-21.7c4.832,-8.363 9.646,-16.735 14.436,-25.122c0.995,-1.742 1.991,-3.484 2.987,-5.226c3.14,-5.494 6.273,-10.993 9.389,-16.501c1.459,-2.577 2.921,-5.153 4.383,-7.728c0.696,-1.226 1.389,-2.454 2.081,-3.682c0.961,-1.706 1.929,-3.409 2.896,-5.112c0.547,-0.969 1.095,-1.937 1.659,-2.935c3.798,-6.13 7.781,-9.886 14.357,-12.944c12.113,-2.743 19.996,1.403 30.312,7.25c1.013,0.569 2.027,1.138 3.071,1.724c2.877,1.617 5.749,3.243 8.618,4.874c1.818,1.031 3.639,2.054 5.461,3.078c5.954,3.368 11.692,6.838 17.288,10.789c9.18,6.802 9.18,6.802 19.942,9.518c5.35,-1.238 9.779,-4.236 14.388,-7.113c6.141,-3.553 12.682,-6.307 19.152,-9.204c4.05,-1.82 8.082,-3.677 12.115,-5.533c0.777,-0.357 1.554,-0.713 2.354,-1.081c4.551,-2.092 9.085,-4.217 13.607,-6.372c1.003,-0.473 2.006,-0.945 3.04,-1.432c1.779,-0.84 3.552,-1.691 5.319,-2.556c5.147,-2.411 8.947,-3.331 14.645,-2.692c2.135,2.033 3.431,3.588 5,6c6.271,9.109 13.172,15.077 24.152,17.469c6.924,1.071 13.262,-0.274 19.848,-2.469c3.375,-0.375 3.375,-0.375 7,-0c4.469,3.663 6.582,7.636 8.863,12.789c0.349,0.763 0.698,1.526 1.057,2.312c1.141,2.503 2.267,5.014 3.393,7.524c0.8,1.764 1.602,3.528 2.406,5.291c1.643,3.611 3.28,7.225 4.912,10.842c3.127,6.928 6.295,13.837 9.461,20.747c0.971,2.122 1.94,4.245 2.908,6.368c3.534,7.751 7.09,15.492 10.672,23.221c1.168,2.525 2.336,5.051 3.504,7.576c0.748,1.615 1.497,3.23 2.249,4.843c7.198,15.454 7.198,15.454 9.575,23.487c3.96,-0.33 7.92,-0.66 12,-1c-0.564,-1.195 -0.564,-1.195 -1.139,-2.414c-7.153,-15.173 -14.255,-30.367 -21.173,-45.649c-5.491,-12.127 -11.038,-24.228 -16.625,-36.312c-5.406,-11.691 -10.796,-23.388 -16.145,-35.104c-0.972,-2.128 -1.945,-4.256 -2.918,-6.383c-3.179,-6.953 -6.351,-13.908 -9.508,-20.871c-1.571,-3.461 -3.146,-6.919 -4.722,-10.377c-0.759,-1.667 -1.516,-3.336 -2.27,-5.007c-1.044,-2.31 -2.095,-4.616 -3.148,-6.922c-0.311,-0.693 -0.622,-1.386 -0.942,-2.1c-1.469,-3.581 -1.469,-3.581 -4.41,-5.861c-5.327,-0.388 -8.748,0.427 -13.523,2.754c-0.61,0.292 -1.22,0.584 -1.849,0.884c-1.316,0.632 -2.63,1.27 -3.941,1.913c-2.837,1.392 -5.689,2.753 -8.539,4.116c-1.491,0.714 -2.981,1.428 -4.47,2.145c-7.57,3.636 -15.211,7.108 -22.865,10.563c-2.73,1.235 -5.459,2.471 -8.188,3.707c-0.689,0.312 -1.378,0.624 -2.088,0.946c-5.458,2.476 -10.906,4.976 -16.349,7.484c-0.825,0.38 -1.65,0.76 -2.5,1.151c-3.995,1.84 -7.988,3.683 -11.98,5.528c-3.558,1.643 -7.121,3.273 -10.689,4.892c-1.345,0.611 -2.688,1.225 -4.03,1.842c-1.894,0.869 -3.794,1.722 -5.696,2.571c-1.074,0.485 -2.147,0.971 -3.253,1.471c-3.264,1.109 -5.618,1.383 -9.04,1.033c-3.635,-2.608 -4.834,-4.07 -5.625,-8.5c0.795,-4.454 2.232,-5.57 5.625,-8.5c3.162,-1.751 3.162,-1.751 6.773,-3.355c0.664,-0.299 1.327,-0.598 2.01,-0.906c2.193,-0.986 4.392,-1.956 6.592,-2.927c1.561,-0.699 3.121,-1.399 4.681,-2.101c2.454,-1.104 4.908,-2.207 7.365,-3.306c8.284,-3.708 16.522,-7.515 24.756,-11.333c12.612,-5.845 25.239,-11.656 37.889,-17.418c1.386,-0.632 2.772,-1.264 4.158,-1.897c4.25,-1.94 8.509,-3.856 12.776,-5.757c1.648,-0.745 1.648,-0.745 3.33,-1.505c8.857,-3.883 17.738,-6.036 27.107,-1.995Zm-223.425,73.254c-1.117,1.931 -2.224,3.868 -3.325,5.808c-0.605,1.053 -1.21,2.106 -1.834,3.191c-1.627,2.833 -3.247,5.67 -4.863,8.51c-1.628,2.857 -3.265,5.709 -4.9,8.561c-3.7,6.459 -7.387,12.924 -11.072,19.391c-3.024,5.305 -6.052,10.608 -9.08,15.91c-0.33,0.577 -0.66,1.155 -1,1.75c-4.898,8.573 -9.816,17.135 -14.75,25.687c-0.922,1.598 -0.922,1.598 -1.862,3.227c-2.895,5.013 -5.796,10.022 -8.709,15.023c-0.518,0.892 -1.037,1.783 -1.571,2.701c-0.964,1.657 -1.93,3.313 -2.899,4.968c-2.158,3.081 -2.158,3.081 -3.147,6.519c4.663,1.118 8.365,1.352 13,-0c3.8,-4.211 6.045,-9.055 8.536,-14.12c2.517,-4.953 5.339,-9.731 8.123,-14.538c1.729,-2.992 3.436,-5.996 5.146,-8.998c4.148,-7.273 8.324,-14.529 12.507,-21.782c0.629,-1.089 1.257,-2.178 1.904,-3.3c3.314,-5.741 3.314,-5.741 4.784,-8.262c0.516,-0.911 1.032,-1.823 1.563,-2.762c1.437,-2.238 1.437,-2.238 3.437,-3.238c4.642,-0.484 7.637,0.108 11.937,1.937c9.013,3.814 17.025,3.634 26.297,0.247c7.561,-3.503 12.793,-8.771 17.504,-15.547c1.738,-2.254 2.944,-2.584 5.739,-3.051c5.361,0.63 9.304,3.314 13.898,6.039c1.009,0.585 2.019,1.169 3.059,1.772c3.196,1.855 6.382,3.727 9.566,5.603c1.989,1.164 3.979,2.326 5.969,3.488c2.97,1.734 5.939,3.469 8.906,5.208c7.16,4.189 14.376,8.269 21.625,12.304c9.157,5.098 18.237,10.313 27.278,15.614c7.63,4.469 15.292,8.879 22.972,13.261c0.578,0.33 1.157,0.66 1.753,1c4.164,2.377 8.331,4.751 12.497,7.125c4.435,2.528 8.87,5.056 13.304,7.586c1.761,1.005 3.523,2.008 5.285,3.011c1.087,0.62 2.174,1.241 3.294,1.88c1.044,0.589 2.089,1.179 3.165,1.787c1.887,1.11 3.742,2.277 5.548,3.515c6.58,4.453 11.679,4.986 19.529,4.596c1.052,-0.027 2.104,-0.054 3.188,-0.082c2.564,-0.07 5.124,-0.168 7.687,-0.293c-3.055,-2.4 -6.223,-4.351 -9.602,-6.266c-1.116,-0.634 -2.232,-1.269 -3.382,-1.923c-0.593,-0.336 -1.185,-0.671 -1.795,-1.016c-3.173,-1.796 -6.341,-3.601 -9.51,-5.404c-0.648,-0.369 -1.297,-0.738 -1.965,-1.117c-6.265,-3.564 -12.507,-7.166 -18.746,-10.774c-8.945,-5.169 -17.904,-10.314 -26.875,-15.438c-0.58,-0.331 -1.159,-0.662 -1.757,-1.003c-5.908,-3.374 -11.818,-6.746 -17.73,-10.115c-2.963,-1.689 -5.926,-3.379 -8.888,-5.069c-0.583,-0.332 -1.166,-0.665 -1.766,-1.007c-8.086,-4.616 -16.14,-9.284 -24.172,-13.993c-9.253,-5.425 -18.586,-10.692 -27.956,-15.911c-6.424,-3.585 -12.796,-7.241 -19.12,-10.998c-8.029,-4.758 -16.145,-9.366 -24.259,-13.977c-5.468,-3.11 -10.923,-6.236 -16.325,-9.462c-0.869,-0.516 -1.739,-1.032 -2.635,-1.564c-1.587,-0.946 -3.169,-1.9 -4.745,-2.865c-2.843,-1.688 -5.222,-2.977 -8.463,-3.692c-5.263,1.354 -7.644,5.969 -10.297,10.348Zm152.797,-1.098c-0.819,0.381 -1.638,0.761 -2.481,1.153c-2.633,1.225 -5.262,2.458 -7.891,3.691c-2.565,1.199 -5.132,2.395 -7.699,3.591c-1.701,0.793 -3.403,1.587 -5.103,2.382c-4.277,1.994 -8.567,3.949 -12.892,5.836c-0.835,0.364 -1.669,0.728 -2.528,1.104c-1.587,0.689 -3.175,1.373 -4.767,2.05c-3.918,1.455 -3.918,1.455 -6.448,4.537c0.692,0.381 1.384,0.762 2.098,1.155c13.346,7.357 26.632,14.791 39.776,22.506c7.596,4.456 15.226,8.851 22.876,13.214c0.584,0.333 1.168,0.666 1.769,1.009c2.969,1.694 5.938,3.387 8.908,5.079c5.901,3.364 11.8,6.731 17.698,10.099c0.58,0.332 1.159,0.663 1.757,1.004c8.425,4.813 16.839,9.646 25.243,14.496c1.048,0.605 2.095,1.209 3.174,1.831c5.067,2.924 10.129,5.854 15.183,8.8c2.421,1.411 4.843,2.818 7.266,4.225c1.72,1.001 3.438,2.006 5.155,3.012c1.032,0.599 2.065,1.199 3.128,1.816c1.37,0.8 1.37,0.8 2.768,1.615c2.084,1.292 2.084,1.292 4.201,1.139c-1.445,-4.627 -3.275,-8.991 -5.316,-13.379c-0.493,-1.069 -0.493,-1.069 -0.996,-2.159c-1.08,-2.343 -2.166,-4.684 -3.251,-7.025c-0.759,-1.644 -1.518,-3.289 -2.277,-4.934c-1.583,-3.433 -3.168,-6.864 -4.754,-10.295c-3.472,-7.513 -6.933,-15.032 -10.39,-22.552c-1.042,-2.265 -2.086,-4.529 -3.13,-6.793c-0.329,-0.717 -0.659,-1.433 -0.999,-2.172c-0.65,-1.413 -1.302,-2.825 -1.955,-4.236c-1.754,-3.808 -3.441,-7.635 -5.064,-11.5c-0.531,-1.247 -0.531,-1.247 -1.072,-2.518c-0.681,-1.605 -1.349,-3.215 -2.004,-4.83c-0.997,-2.431 -0.997,-2.431 -2.792,-5.607c-2.998,-1.194 -4.429,-0.936 -7.75,-0.438c-14.712,1.849 -28.129,-2.696 -39.766,-11.457c-2.257,-1.913 -4.113,-3.822 -5.984,-6.105c-0.825,-0.99 -1.65,-1.98 -2.5,-3c-4.222,-0 -7.445,1.888 -11.191,3.656Zm-98.809,48.344c-1.067,1.184 -2.128,2.372 -3.188,3.562c-7.82,7.948 -19.683,13.407 -30.843,13.668c-1.823,-0.003 -3.646,-0.018 -5.469,-0.043c-1.367,-0 -1.367,-0 -2.762,-0.001c-5.012,-0.033 -9.797,-0.338 -14.738,-1.186c-6.217,9.785 -11.914,19.84 -17.59,29.945c-3.886,6.917 -7.836,13.797 -11.804,20.668c-0.474,0.827 -0.949,1.653 -1.438,2.504c-0.42,0.728 -0.84,1.457 -1.273,2.207c-0.974,1.506 -0.974,1.506 -0.895,2.676l219,-0c-3.156,-2.367 -6.122,-4.295 -9.531,-6.23c-1.106,-0.63 -2.213,-1.26 -3.352,-1.909c-1.206,-0.683 -2.411,-1.366 -3.617,-2.049c-1.257,-0.714 -2.513,-1.429 -3.769,-2.144c-2.611,-1.486 -5.223,-2.97 -7.835,-4.454c-6.013,-3.416 -12.017,-6.846 -18.021,-10.277c-0.579,-0.33 -1.157,-0.66 -1.753,-1.001c-9.452,-5.398 -18.883,-10.831 -28.307,-16.276c-11.463,-6.62 -22.957,-13.187 -34.458,-19.742c-2.423,-1.384 -4.843,-2.774 -7.261,-4.168c-0.645,-0.371 -1.29,-0.742 -1.954,-1.125c-1.251,-0.72 -2.501,-1.442 -3.751,-2.165c-2.539,-1.723 -2.539,-1.723 -5.391,-2.46Zm-151,95c-0.902,2.707 -1.127,4.26 -1.131,7.038c-0.004,0.824 -0.008,1.649 -0.012,2.498c0.001,0.906 0.002,1.811 0.003,2.744c-0.003,0.962 -0.006,1.924 -0.009,2.915c-0.009,3.238 -0.011,6.476 -0.012,9.714c-0.005,2.316 -0.01,4.632 -0.015,6.948c-0.013,6.302 -0.02,12.603 -0.024,18.905c-0.003,3.935 -0.007,7.869 -0.012,11.804c-0.012,10.894 -0.022,21.787 -0.026,32.681c0,0.697 -0,1.395 -0,2.113c-0,0.699 -0.001,1.398 -0.001,2.118c-0,1.416 -0.001,2.833 -0.001,4.249c-0,0.702 -0.001,1.405 -0.001,2.129c-0.004,11.383 -0.021,22.766 -0.045,34.15c-0.023,11.686 -0.036,23.373 -0.037,35.06c-0.001,6.562 -0.007,13.123 -0.025,19.685c-0.016,6.172 -0.018,12.343 -0.01,18.514c0.001,2.267 -0.003,4.533 -0.013,6.8c-0.013,3.091 -0.007,6.182 0.004,9.274c-0.009,0.899 -0.017,1.798 -0.025,2.724c0.04,5.003 0.397,8.717 3.392,12.937c4.117,2.183 7.736,2.251 12.345,2.254c1.1,0.005 1.1,0.005 2.222,0.01c2.465,0.009 4.93,0.003 7.394,-0.003c1.782,0.003 3.564,0.007 5.346,0.011c4.903,0.011 9.805,0.008 14.708,0.004c5.285,-0.002 10.57,0.007 15.855,0.014c10.356,0.013 20.712,0.015 31.068,0.012c8.415,-0.001 16.83,0 25.245,0.005c1.197,0 2.393,0.001 3.626,0.001c2.431,0.002 4.861,0.003 7.292,0.004c22.806,0.011 45.612,0.009 68.419,0.003c20.876,-0.006 41.752,0.006 62.628,0.025c21.423,0.019 42.846,0.027 64.269,0.024c12.032,-0.002 24.064,0 36.097,0.014c10.243,0.012 20.485,0.014 30.728,0.002c5.228,-0.006 10.456,-0.007 15.684,0.005c4.783,0.01 9.567,0.007 14.35,-0.007c1.733,-0.002 3.466,0 5.199,0.008c2.351,0.01 4.702,0.002 7.054,-0.011c1.307,-0 2.615,-0 3.962,-0c3.824,-0.409 6.246,-1.371 9.509,-3.375c2.816,-4.336 2.282,-9.521 2.261,-14.52c0.004,-0.964 0.007,-1.928 0.011,-2.921c0.011,-3.232 0.007,-6.464 0.003,-9.695c0.004,-2.317 0.009,-4.633 0.015,-6.949c0.014,-6.293 0.014,-12.586 0.012,-18.88c-0.001,-5.251 0.003,-10.502 0.008,-15.753c0.012,-13.095 0.011,-26.19 0.005,-39.285c-0.006,-11.37 0.006,-22.741 0.025,-34.111c0.019,-11.678 0.027,-23.355 0.024,-35.033c-0.002,-6.555 0,-13.11 0.014,-19.665c0.013,-6.164 0.011,-12.327 -0.002,-18.49c-0.002,-2.263 0,-4.526 0.009,-6.789c0.01,-3.088 0.002,-6.174 -0.011,-9.262c0.008,-0.897 0.015,-1.794 0.023,-2.719c-0.044,-5.043 -0.56,-8.572 -3.397,-12.928c-2.927,-1.463 -5.867,-1.141 -9.075,-1.134c-0.741,-0.003 -1.482,-0.005 -2.245,-0.007c-2.507,-0.007 -5.014,-0.007 -7.522,-0.006c-1.805,-0.003 -3.611,-0.007 -5.416,-0.011c-4.982,-0.01 -9.964,-0.014 -14.945,-0.017c-5.365,-0.004 -10.73,-0.013 -16.095,-0.022c-12.964,-0.02 -25.929,-0.03 -38.894,-0.039c-6.099,-0.004 -12.199,-0.009 -18.298,-0.015c-20.264,-0.017 -40.527,-0.031 -60.791,-0.038c-5.262,-0.002 -10.523,-0.004 -15.784,-0.006c-1.308,-0.001 -2.615,-0.001 -3.963,-0.002c-21.201,-0.008 -42.402,-0.033 -63.602,-0.066c-21.746,-0.033 -43.492,-0.051 -65.239,-0.054c-12.218,-0.002 -24.435,-0.011 -36.653,-0.036c-10.402,-0.022 -20.804,-0.03 -31.205,-0.021c-5.311,0.005 -10.622,0.003 -15.933,-0.016c-4.857,-0.018 -9.713,-0.017 -14.57,-0.001c-1.762,0.002 -3.524,-0.002 -5.286,-0.014c-2.386,-0.015 -4.771,-0.006 -7.157,0.01c-1.037,-0.015 -1.037,-0.015 -2.096,-0.031c-4.493,0.065 -6.539,0.908 -9.231,4.526Z" style="fill-rule:nonzero;"/><path d="M105.354,243.497c1.092,-0.011 2.184,-0.021 3.31,-0.032c1.199,0.009 2.399,0.018 3.635,0.027c1.274,-0.006 2.549,-0.012 3.862,-0.019c3.541,-0.017 7.081,-0.008 10.622,0.004c3.817,0.009 7.635,-0.005 11.452,-0.016c7.479,-0.018 14.958,-0.014 22.438,-0.002c6.077,0.009 12.154,0.01 18.232,0.006c0.864,-0.001 1.728,-0.001 2.618,-0.002c1.756,-0.001 3.511,-0.003 5.267,-0.004c16.47,-0.011 32.94,0.002 49.41,0.023c14.139,0.018 28.278,0.015 42.417,-0.003c16.41,-0.022 32.821,-0.03 49.231,-0.018c1.749,0.001 3.498,0.002 5.247,0.004c1.291,0.001 1.291,0.001 2.609,0.002c6.071,0.003 12.143,-0.003 18.214,-0.012c7.397,-0.011 14.794,-0.008 22.191,0.013c3.776,0.01 7.551,0.015 11.327,0.001c4.089,-0.014 8.177,0.003 12.265,0.023c1.8,-0.013 1.8,-0.013 3.635,-0.027c1.639,0.016 1.639,0.016 3.31,0.032c1.417,0.001 1.417,0.001 2.861,0.002c3.273,0.658 4.453,1.905 6.493,4.501c0.616,2.558 1.046,4.909 1.375,7.5c1.702,10.71 5.596,20.893 14.625,27.5c7.166,4.631 14.197,6.824 22.568,7.888c2.877,0.405 5.14,0.93 7.616,2.474c2.93,4.257 2.372,8.63 2.334,13.677c0.01,1.688 0.01,1.688 0.021,3.411c0.017,3.725 0.006,7.45 -0.008,11.175c0.003,2.585 0.007,5.171 0.012,7.756c0.006,5.421 -0.002,10.841 -0.022,16.262c-0.021,6.264 -0.014,12.528 0.008,18.793c0.02,6.029 0.018,12.058 0.006,18.087c-0.002,2.565 0.001,5.129 0.01,7.694c0.01,3.581 -0.005,7.162 -0.027,10.744c0.008,1.064 0.016,2.128 0.024,3.224c-0.082,7.146 -0.082,7.146 -2.353,10.45c-3.104,1.936 -6.257,2.336 -9.814,2.802c-11.45,1.847 -21.156,6.36 -28.133,15.989c-3.557,5.662 -5.723,10.864 -6.656,17.531c-0.228,1.599 -0.228,1.599 -0.461,3.23c-0.121,1.005 -0.242,2.009 -0.367,3.043c-0.928,3.391 -2.049,4.563 -4.758,6.77c-2.464,0.506 -2.464,0.506 -5.276,0.515c-1.068,0.012 -2.136,0.025 -3.237,0.038c-1.167,-0.006 -2.334,-0.013 -3.536,-0.02c-1.849,0.013 -1.849,0.013 -3.736,0.027c-3.378,0.018 -6.756,0.019 -10.134,0.01c-2.821,-0.005 -5.641,0.002 -8.462,0.01c-6.654,0.017 -13.307,0.013 -19.961,-0.004c-6.865,-0.017 -13.728,-0.001 -20.593,0.032c-5.895,0.026 -11.789,0.034 -17.684,0.025c-3.52,-0.005 -7.04,-0.003 -10.56,0.018c-3.925,0.022 -7.848,0.003 -11.772,-0.02c-1.75,0.018 -1.75,0.018 -3.536,0.036c-7.849,-0.093 -7.849,-0.093 -11.235,-3.019c-1.572,-3.257 -1.874,-5.074 -1.278,-8.648c1.343,-2.652 1.343,-2.652 4,-5c3.663,-0.747 7.285,-0.631 11.011,-0.568c1.122,-0 2.244,-0.001 3.4,-0.002c3.713,0.004 7.424,0.043 11.136,0.082c2.572,0.009 5.145,0.016 7.718,0.021c6.081,0.017 12.161,0.057 18.242,0.107c6.924,0.056 13.848,0.083 20.771,0.108c14.241,0.053 28.482,0.141 42.722,0.252c0.124,-0.669 0.248,-1.338 0.376,-2.027c0.17,-0.887 0.34,-1.774 0.515,-2.688c0.165,-0.875 0.33,-1.75 0.501,-2.652c3.346,-14.484 13.595,-25.658 25.608,-33.633c6.19,-3.743 13.693,-7 21,-7l-0,-92c-3.63,-0.66 -7.26,-1.32 -11,-2c-14.336,-5.253 -26.079,-15.629 -32.637,-29.449c-2.097,-5.269 -3.424,-9.918 -4.363,-15.551l-288,-0c-0.99,3.96 -1.98,7.92 -3,12c-6.005,14.306 -15.953,24.861 -30.031,31.41c-5.124,1.964 -9.424,2.798 -14.969,3.59l-0,92c3.3,0.66 6.6,1.32 10,2c15.262,5.854 27.226,15.969 34.191,30.953c1.917,4.852 3.809,9.798 3.809,15.047c0.759,-0.004 1.518,-0.007 2.3,-0.011c18.461,-0.088 36.922,-0.155 55.383,-0.196c8.928,-0.021 17.855,-0.049 26.783,-0.095c7.78,-0.04 15.56,-0.065 23.341,-0.074c4.12,-0.006 8.241,-0.018 12.361,-0.047c3.878,-0.027 7.755,-0.035 11.632,-0.029c1.424,-0.002 2.848,-0.01 4.272,-0.025c1.942,-0.02 3.885,-0.013 5.828,-0.004c1.088,-0.004 2.176,-0.007 3.296,-0.011c3.476,0.61 4.647,1.757 6.804,4.492c0.531,2 0.531,2 0.5,4c0.015,0.99 0.015,0.99 0.031,2c-0.785,2.955 -2.16,4.097 -4.531,6c-2.98,0.503 -2.98,0.503 -6.528,0.508c-0.654,0.006 -1.308,0.012 -1.982,0.019c-2.19,0.016 -4.378,0.003 -6.568,-0.009c-1.571,0.005 -3.141,0.012 -4.711,0.021c-4.265,0.018 -8.529,0.011 -12.794,-0.002c-4.461,-0.01 -8.922,-0 -13.383,0.006c-7.492,0.007 -14.984,-0.002 -22.475,-0.022c-8.664,-0.021 -17.328,-0.014 -25.992,0.008c-7.436,0.018 -14.872,0.021 -22.308,0.01c-4.442,-0.006 -8.885,-0.007 -13.327,0.006c-4.176,0.012 -8.352,0.004 -12.529,-0.019c-1.533,-0.006 -3.066,-0.004 -4.6,0.005c-2.092,0.011 -4.183,-0.003 -6.275,-0.023c-1.171,-0.002 -2.342,-0.003 -3.548,-0.005c-3.629,-0.613 -4.791,-1.592 -6.98,-4.503c-0.64,-2.601 -1.092,-4.99 -1.438,-7.625c-1.846,-11.45 -6.359,-21.156 -15.988,-28.133c-5.662,-3.557 -10.864,-5.723 -17.531,-6.656c-1.066,-0.152 -2.132,-0.304 -3.231,-0.461c-1.004,-0.121 -2.008,-0.242 -3.042,-0.367c-3.595,-0.984 -4.606,-1.683 -6.77,-4.758c-0.615,-3.673 -0.546,-7.322 -0.518,-11.039c-0.007,-1.126 -0.014,-2.251 -0.021,-3.411c-0.017,-3.725 -0.006,-7.45 0.008,-11.175c-0.003,-2.585 -0.007,-5.171 -0.012,-7.756c-0.006,-5.421 0.002,-10.841 0.022,-16.262c0.021,-6.264 0.014,-12.528 -0.008,-18.793c-0.02,-6.029 -0.018,-12.058 -0.006,-18.087c0.002,-2.565 -0.001,-5.129 -0.01,-7.694c-0.01,-3.581 0.005,-7.162 0.027,-10.744c-0.008,-1.064 -0.016,-2.128 -0.024,-3.224c0.083,-7.147 0.083,-7.147 2.358,-10.453c3.071,-1.915 6.164,-2.29 9.684,-2.737c10.71,-1.702 20.893,-5.596 27.5,-14.625c4.631,-7.166 6.824,-14.197 7.888,-22.568c0.948,-6.734 3.531,-9.931 10.466,-9.935Z" style="fill-rule:nonzero;"/><path d="M299.693,295.28c14.356,11.71 26.068,27.891 28.307,46.72c1.459,21.72 -1.328,41.955 -15.979,58.909c-14.458,15.836 -31.974,24.852 -53.533,26.091c-20.379,-0 -39.183,-6.785 -53.769,-21.191c-15.181,-15.683 -21.271,-33.095 -21.137,-54.81c0.509,-20.498 8.766,-37.007 23.418,-50.999c24.567,-23.287 65.749,-25.084 92.693,-4.72Zm-78.693,15.72c-0.986,0.771 -1.972,1.542 -2.988,2.336c-9.17,7.695 -14.453,19.198 -17.012,30.664c-1.607,18.916 2.228,33.401 14.312,48.25c10.918,11.838 25.83,17.079 41.688,17.75c15.667,-0.724 29.416,-7.17 40.316,-18.383c11.477,-13.546 14.821,-27.831 13.922,-45.117c-0.996,-10.452 -5.635,-19.456 -12.238,-27.5c-1.164,-1.481 -1.164,-1.481 -2.352,-2.992c-8.049,-9.58 -20.712,-15.845 -33.023,-17.286c-16.163,-1.261 -29.871,1.809 -42.625,12.278Z" style="fill-rule:nonzero;"/></svg>